<?xml version="1.0" encoding="UTF-8" standalone="no"?>
<svg
   xmlns:dc="http://purl.org/dc/elements/1.1/"
   xmlns:cc="http://creativecommons.org/ns#"
   xmlns:rdf="http://www.w3.org/1999/02/22-rdf-syntax-ns#"
   xmlns:svg="http://www.w3.org/2000/svg"
   xmlns="http://www.w3.org/2000/svg"
   xmlns:sodipodi="http://sodipodi.sourceforge.net/DTD/sodipodi-0.dtd"
   xmlns:inkscape="http://www.inkscape.org/namespaces/inkscape"
   inkscape:version="1.0 (4035a4fb49, 2020-05-01)"
   sodipodi:docname="uniform_prob_graph.svg"
   viewBox="0 0 816 1056"
   height="1056"
   width="816"
   xml:space="preserve"
   id="svg2"
   version="1.1"><metadata
     id="metadata8"><rdf:RDF><cc:Work
         rdf:about=""><dc:format>image/svg+xml</dc:format><dc:type
           rdf:resource="http://purl.org/dc/dcmitype/StillImage" /><dc:title></dc:title></cc:Work></rdf:RDF></metadata><defs
     id="defs6" /><sodipodi:namedview
     inkscape:current-layer="g10"
     inkscape:window-maximized="0"
     inkscape:window-y="29"
     inkscape:window-x="0"
     inkscape:cy="258.28571"
     inkscape:cx="306"
     inkscape:zoom="0.58333333"
     inkscape:snap-global="false"
     showgrid="false"
     id="namedview4"
     inkscape:window-height="771"
     inkscape:window-width="1280"
     inkscape:pageshadow="2"
     inkscape:pageopacity="0"
     guidetolerance="10"
     gridtolerance="10"
     objecttolerance="10"
     borderopacity="1"
     bordercolor="#666666"
     pagecolor="#ffffff" /><g
     transform="matrix(1.3333333,0,0,-1.3333333,0,1056)"
     inkscape:label="ink_ext_XXXXXX"
     inkscape:groupmode="layer"
     id="g10"><g
       transform="scale(0.1)"
       id="g12" /><path
       id="path837"
       d="m 115.14288,731.13729 c 0.67662,-10.14851 -0.21207,-20.3374 -0.31272,-30.50664 -0.30274,-30.58897 0.15405,-61.13753 -1.4385,-91.70665 -0.7278,-13.97015 -1.62321,-27.93115 -2.37666,-41.89993 -1.66401,-6.73221 -0.22336,-13.53676 -0.56289,-20.29626 -0.0745,-1.48348 -0.28115,2.96196 -0.56289,4.42035"
       style="fill:none;stroke:#0000ff;stroke-width:0.75px;stroke-linecap:butt;stroke-linejoin:miter;stroke-opacity:1" /><path
       id="path839"
       d="m 28.707394,646.15451 c 3.106345,1.16216 6.020023,3.14514 9.319035,3.48647 38.432496,3.97642 77.999561,1.97127 116.393951,1.99229 19.43066,0.0106 38.88401,1.33662 58.29079,0.37354 9.85048,-0.48884 19.71116,-0.97019 29.52066,-1.99226 3.59262,-0.37431 13.76508,-3.12646 10.19464,-3.67327 -5.27667,-0.80813 -14.21761,3.65032 -17.88751,5.04295"
       style="fill:none;stroke:#0000ff;stroke-width:0.75px;stroke-linecap:butt;stroke-linejoin:miter;stroke-opacity:1" /><path
       id="path841"
       d="m 135.7198,653.56325 c -0.69822,5.35068 -0.65716,10.65049 -0.4378,16.00046 0.0401,0.97811 0.0199,3.86707 -0.25017,2.92612 -0.3489,-1.21554 -0.008,-1.61665 -0.68799,-2.80162 15.85256,-4.553 30.66999,5.18891 32.21004,21.5414 0.0597,0.63431 0.49943,7.59555 -0.93816,7.59555 -0.52098,0 -0.30946,-1.80721 -0.37526,-1.93002 -0.34109,-0.63663 -1.09907,-0.93814 -1.62613,-1.43195 1.20918,-3.17518 2.63052,-6.27748 3.62753,-9.52554 0.49025,-1.59714 -2.32854,-21.58525 -2.25157,-26.33533 0.0744,-4.59399 -0.0203,-9.42849 0.0625,-9.401 1.23023,0.40828 0.40733,3.68 0.31272,4.35808"
       style="fill:none;stroke:#000000;stroke-width:0.75px;stroke-linecap:butt;stroke-linejoin:miter;stroke-opacity:1" /><path
       id="path843"
       d="m 129.21523,637.31381 c 1.81378,0.76785 3.55707,1.73001 5.44133,2.30356 5.40813,1.64618 9.76153,-6.80293 7.88049,-10.95745 -1.76907,-3.90726 -10.10684,-9.10608 -9.94443,-9.71235 0.58659,-2.18967 9.38099,-1.16959 11.00768,-1.68094 1.94488,-0.61139 0.18688,-1.06865 -0.62544,-0.93388"
       style="fill:none;stroke:#0000ff;stroke-width:0.75px;stroke-linecap:butt;stroke-linejoin:miter;stroke-opacity:1" /><path
       id="path845"
       d="m 159.92421,618.44954 c 7.39897,-0.92067 6.46276,-2.56389 11.32044,4.17132 6.56545,9.10305 -13.2909,-0.58221 -10.94514,7.72001 3.73688,13.22564 5.3e-4,7.32408 11.50803,9.152 0.56094,0.0891 4.16657,1.07043 4.6908,-0.56034 0.66574,-2.07091 -1.98517,-3.87638 -3.12721,-5.72776"
       style="fill:none;stroke:#0000ff;stroke-width:0.75px;stroke-linecap:butt;stroke-linejoin:miter;stroke-opacity:1" /><path
       id="path847"
       d="m 72.300399,563.28856 c -1.941839,7.86446 1.322827,15.21119 2.126483,22.91108 2.864408,27.44415 2.20131,49.07167 23.141213,69.91621 3.938075,3.92014 8.431425,8.34091 13.446905,10.89526 5.28226,2.69022 10.37861,2.24166 16.07375,2.86386 18.5178,2.02309 34.0407,6.79704 42.77994,24.46758 6.97879,14.11096 10.90608,25.20495 13.69708,40.71702 1.50304,8.35371 -1.06324,15.97012 -1.06324,24.15627 0,1.2279 5.56601,3.45184 3.81516,0.12449"
       style="fill:none;stroke:#ff0000;stroke-width:0.75px;stroke-linecap:butt;stroke-linejoin:miter;stroke-opacity:1" /><path
       id="path849"
       d="m 253.16629,637.42591 c 6.31562,-10.16912 3.98777,-4.91327 9.9263,-9.15102 2.2865,-1.63166 3.27314,-7.99712 5.48265,-9.17606"
       style="fill:none;stroke:#000000;stroke-width:0.75px;stroke-linecap:butt;stroke-linejoin:miter;stroke-opacity:1" /><path
       id="path851"
       d="m 265.23908,639.94653 c -6.13564,-7.25671 -7.08453,-15.85476 -10.22184,-22.918"
       style="fill:none;stroke:#000000;stroke-width:0.75px;stroke-linecap:butt;stroke-linejoin:miter;stroke-opacity:1" /></g></svg>
