<?xml version="1.0" encoding="UTF-8" standalone="no"?>
<svg
   xmlns:dc="http://purl.org/dc/elements/1.1/"
   xmlns:cc="http://creativecommons.org/ns#"
   xmlns:rdf="http://www.w3.org/1999/02/22-rdf-syntax-ns#"
   xmlns:svg="http://www.w3.org/2000/svg"
   xmlns="http://www.w3.org/2000/svg"
   xmlns:sodipodi="http://sodipodi.sourceforge.net/DTD/sodipodi-0.dtd"
   xmlns:inkscape="http://www.inkscape.org/namespaces/inkscape"
   inkscape:version="1.0 (4035a4fb49, 2020-05-01)"
   sodipodi:docname="tree3.svg"
   viewBox="0 0 816 1056"
   height="1056"
   width="816"
   xml:space="preserve"
   id="svg2"
   version="1.1"><metadata
     id="metadata8"><rdf:RDF><cc:Work
         rdf:about=""><dc:format>image/svg+xml</dc:format><dc:type
           rdf:resource="http://purl.org/dc/dcmitype/StillImage" /><dc:title></dc:title></cc:Work></rdf:RDF></metadata><defs
     id="defs6" /><sodipodi:namedview
     inkscape:current-layer="g10"
     inkscape:window-maximized="0"
     inkscape:window-y="32"
     inkscape:window-x="15"
     inkscape:cy="276.35429"
     inkscape:cx="301.42857"
     inkscape:zoom="0.58333333"
     inkscape:snap-global="false"
     showgrid="false"
     id="namedview4"
     inkscape:window-height="749"
     inkscape:window-width="1246"
     inkscape:pageshadow="2"
     inkscape:pageopacity="0"
     guidetolerance="10"
     gridtolerance="10"
     objecttolerance="10"
     borderopacity="1"
     bordercolor="#666666"
     pagecolor="#ffffff" /><g
     transform="matrix(1.3333333,0,0,-1.3333333,0,1056)"
     inkscape:label="ink_ext_XXXXXX"
     inkscape:groupmode="layer"
     id="g10"><g
       transform="scale(0.1)"
       id="g12" /><path
       id="path837"
       d="m 54.308364,616.57735 c 12.46959,13.69174 23.527148,28.92835 38.589518,40.03214 2.029388,1.49604 8.334198,5.59466 6.504533,3.86005 -1.903837,-1.80493 -4.549455,-2.95438 -6.817253,-4.23359"
       style="fill:none;stroke:#000000;stroke-width:0.75px;stroke-linecap:butt;stroke-linejoin:miter;stroke-opacity:1" /><path
       id="path839"
       d="m 45.927522,667.56698 c -0.41697,-7.22198 -5.075964,-15.52592 -1.250911,-21.66594 2.367023,-3.79957 9.302336,0.28284 13.196739,2.49036 16.823854,9.53653 -10.606001,20.00773 -11.945828,19.17558 -2.241436,-1.39213 0.250174,-5.27121 0.375261,-7.90682"
       style="fill:none;stroke:#000000;stroke-width:0.75px;stroke-linecap:butt;stroke-linejoin:miter;stroke-opacity:1" /><path
       id="path845"
       d="m 66.254231,647.27072 c -0.317459,9.15553 0.364124,4.89329 0,0 z"
       style="fill:none;stroke:#000000;stroke-width:0.75px;stroke-linecap:butt;stroke-linejoin:miter;stroke-opacity:1" /><path
       id="path847"
       d="m 76.01107,680.32995 c 1.306755,-7.02645 -0.351203,-14.13391 0.250177,-21.16786 0.05497,-0.64297 1.515975,-0.15061 1.563585,0.56034"
       style="fill:none;stroke:#000000;stroke-width:0.75px;stroke-linecap:butt;stroke-linejoin:miter;stroke-opacity:1" /><path
       id="path849"
       d="m 120.04188,679.45835 c -0.22932,-6.35037 -0.61427,-12.69701 -0.68798,-19.05108 -0.28252,-24.3552 14.83067,6.79035 14.00981,17.49463 -0.57873,7.54678 -11.67894,9.30985 -17.38716,8.03132 -0.71833,-0.16089 1.23414,-0.87114 1.62613,-1.49422 0.98441,-1.56472 1.62614,-3.32044 2.4392,-4.98065 z"
       style="fill:none;stroke:#000000;stroke-width:0.75px;stroke-linecap:butt;stroke-linejoin:miter;stroke-opacity:1" /><path
       id="path851"
       d="m 55.121431,618.88091 c 1.417668,-2.71862 2.851525,-5.42886 4.253004,-8.15586 15.137003,-29.4536 6.513739,-15.95173 18.57549,-32.62343 7.5e-4,-0.002 9.369742,-12.92873 7.943032,-5.35423"
       style="fill:none;stroke:#000000;stroke-width:0.75px;stroke-linecap:butt;stroke-linejoin:miter;stroke-opacity:1" /><path
       id="path853"
       d="m 79.951315,615.89247 c -2.626838,-2.36581 -6.318757,-3.92596 -7.88053,-7.09744 -1.774125,-3.6027 -2.825151,-8.16237 -1.501046,-11.95364 5.370643,-15.37758 30.367361,13.29878 16.574128,18.05498 -2.288182,0.78901 -4.795035,0.66407 -7.192552,0.9961 z"
       style="fill:none;stroke:#000000;stroke-width:0.75px;stroke-linecap:butt;stroke-linejoin:miter;stroke-opacity:1" /><path
       id="path855"
       d="m 95.46217,600.63917 c 0.568305,-5.22316 -0.627547,-10.08921 -2.564288,-14.87977 -0.348675,-0.86246 -1.27641,-3.35298 -1.375957,-2.42805 -0.436853,4.05873 2.897565,7.919 3.564983,11.76683 0.31638,1.82399 -0.555443,7.14125 0.375262,5.54099 1.74888,-3.00703 2.403728,-7.48192 1.250873,-10.95749 -0.681503,-2.05455 -1.152098,-7.23872 -2.814465,-5.8523 -2.028571,1.69185 -1.937123,8.58255 0.938152,9.71235 5.8053,2.28111 -2.053598,-8.7346 1.250873,-6.41265"
       style="fill:none;stroke:#000000;stroke-width:0.75px;stroke-linecap:butt;stroke-linejoin:miter;stroke-opacity:1" /><path
       id="path857"
       d="m 105.53173,587.56489 c 2.04254,2.71098 17.76138,19.41784 15.32322,27.64274 -4.39288,14.81894 -26.675257,-12.1217 -3.56499,-6.72391 8.60126,2.00898 3.9091,1.87002 9.25646,1.74326"
       style="fill:none;stroke:#000000;stroke-width:0.75px;stroke-linecap:butt;stroke-linejoin:miter;stroke-opacity:1" /><path
       id="path859"
       d="m 112.84933,560.54476 c -1.14664,-6.9937 -2.27618,-13.99022 -3.4399,-20.9811 -0.70838,-4.2555 -4.97392,-10.8186 -1.18833,-12.88751 7.27239,-3.97453 34.07528,33.49274 4.62823,33.86861 z"
       style="fill:none;stroke:#000000;stroke-width:0.75px;stroke-linecap:butt;stroke-linejoin:miter;stroke-opacity:1" /><path
       id="path861"
       d="m 104.03068,570.94191 c 29.43443,-2.9872 21.50733,3.37148 30.20864,-4.10905"
       style="fill:none;stroke:#000000;stroke-width:0.75px;stroke-linecap:butt;stroke-linejoin:miter;stroke-opacity:1" /><path
       id="path863"
       d="m 246.50539,576.79421 c 5.63262,2.70677 4.02056,1.79529 8.00562,4.04677 8.55163,4.83151 -17.78738,-8.33723 -26.70619,-12.45167 -55.3749,-25.54559 -32.36513,-15.87092 -78.93026,-33.99311 22.0904,-13.94602 45.81653,-25.47447 69.48613,-36.60794 2.28761,-1.07602 13.74645,-7.7269 17.63734,-7.28425 2.16711,0.24655 -2.69718,3.45618 -4.31551,4.91843"
       style="fill:none;stroke:#000000;stroke-width:0.75px;stroke-linecap:butt;stroke-linejoin:miter;stroke-opacity:1" /><path
       id="path865"
       d="m 244.69162,508.30995 c 3.36688,56.76847 -0.35226,-45.51609 -3.18972,-34.36669 -1.81645,7.13754 5.74801,38.00092 14.51016,37.91539 9.48616,-0.0926 5.88048,-18.43255 -0.62544,-20.66979 -0.26859,-0.0924 -10.40565,-2.61824 -8.63106,2.49032 2.57697,7.41834 9.78851,3.98298 12.63385,-0.74707 0.002,-0.004 6.71252,-16.6555 7.06742,-16.49848 0.7011,0.31016 0.83392,1.28665 1.25088,1.92998"
       style="fill:none;stroke:#000000;stroke-width:0.75px;stroke-linecap:butt;stroke-linejoin:miter;stroke-opacity:1" /><path
       id="path867"
       d="m 235.43513,520.20127 c 29.74916,-3.6609 19.62779,-3.13489 45.40677,-2.80162"
       style="fill:none;stroke:#000000;stroke-width:0.75px;stroke-linecap:butt;stroke-linejoin:miter;stroke-opacity:1" /><path
       id="path869"
       d="m 272.77378,593.29269 c 1.1718,-8.90981 6.67709,-30.02763 -1.18833,-39.40961 -1.92046,-2.29075 -2.7816,5.43567 -3.12718,8.4049 -0.46393,3.98618 0.25631,8.03332 0.75052,12.01586 1.58583,12.77908 1.12899,23.12124 16.94936,26.45987 8.8802,1.87402 -2.73395,-40.7172 -11.44552,-28.57662 -3.76936,5.25304 4.63679,8.24241 9.13141,3.48647 5.2951,-5.60296 11.07282,-27.63758 14.63524,-20.5453"
       style="fill:none;stroke:#000000;stroke-width:0.75px;stroke-linecap:butt;stroke-linejoin:miter;stroke-opacity:1" /><path
       id="path871"
       d="m 278.08999,617.94704 c -6.46286,-16.00043 -16.3407,-31.01621 -19.38856,-48.00128 -9.94385,-55.415 38.54321,-49.28576 63.04411,-24.46753 3.24979,3.29188 4.15672,15.3905 3.8152,19.05107 -2.45224,26.2835 -10.72988,44.80781 -37.52628,52.48386 -1.20516,0.34522 -2.50449,0.13182 -3.75261,0.24904 -2.06745,0.19414 -4.6516,2.07753 -6.19186,0.68484 -2.53206,-2.28946 -0.86146,-11.48266 -0.56289,-14.13271"
       style="fill:none;stroke:#000000;stroke-width:0.75px;stroke-linecap:butt;stroke-linejoin:miter;stroke-opacity:1" /><path
       id="path873"
       d="m 175.26804,575.23772 c -1.79293,-1.12065 -4.2219,-1.59217 -5.37879,-3.36193 -5.92301,-9.06073 -2.21223,-19.49494 9.06885,-14.07043 4.15818,1.99945 11.22655,14.19693 3.94026,17.37013 -2.33198,1.01558 -5.08689,0.0415 -7.63032,0.0623 z"
       style="fill:none;stroke:#000000;stroke-width:0.75px;stroke-linecap:butt;stroke-linejoin:miter;stroke-opacity:1" /><path
       id="path875"
       d="m 189.40293,559.05054 c -6.79133,-15.7193 -0.42535,1.7877 0,0 -0.89646,-2.36581 -1.56107,-4.83301 -2.68938,-7.09744 -2.24384,-4.50324 -3.37715,12.904 2.68938,7.09744 1.73885,-1.66433 -1.25087,-4.64863 -1.87631,-6.97294"
       style="fill:none;stroke:#000000;stroke-width:0.75px;stroke-linecap:butt;stroke-linejoin:miter;stroke-opacity:1" /><path
       id="path877"
       d="m 209.41692,564.71608 c -4.10705,-0.0623 -8.21408,-0.12452 -12.32113,-0.18678 -0.33356,0.10376 -1.20723,0.0295 -1.00069,0.31127 4.77819,6.51796 15.55294,9.04893 19.07587,16.06268 4.79923,9.55472 -17.64016,2.65371 -20.07658,1.99226 -0.36905,-0.1002 0.44423,0.7084 0.81307,0.80937 4.06214,1.11198 3.04784,1.09032 5.8166,0.56034"
       style="fill:none;stroke:#000000;stroke-width:0.75px;stroke-linecap:butt;stroke-linejoin:miter;stroke-opacity:1" /><path
       id="path879"
       d="m 216.17167,726.21443 c 1.5578,1.80913 5.14393,4.26482 5.06603,4.29582 -1.3919,0.55431 -7.57579,-4.5345 -8.56847,-5.16746 -14.35755,-9.15478 -29.19244,-17.03062 -43.53051,-26.33529 -3.57496,-2.31997 -7.00488,-4.85617 -10.50732,-7.28425 15.86196,-7.97225 33.61613,-2.82379 50.4728,-5.22969 4.7228,-0.67407 9.94464,-2.06763 14.44761,-3.73551 2.32377,-0.86071 8.67793,-4.71987 6.69221,-3.23743 -2.27616,1.69926 -2.74499,2.08915 -3.4399,4.85615"
       style="fill:none;stroke:#000000;stroke-width:0.75px;stroke-linecap:butt;stroke-linejoin:miter;stroke-opacity:1" /><path
       id="path881"
       d="m 158.44377,729.57637 c -3.1272,-2.90539 -7.18674,-5.05511 -9.38158,-8.71616 -11.23908,-18.74712 8.55365,-10.9793 15.94866,-1.86776 1.65268,2.03632 3.74212,3.99283 4.37805,6.53714 0.29758,1.19059 -0.10531,9.2433 -4.50314,8.15582 -2.4725,-0.61139 -4.29466,-2.73936 -6.44199,-4.10904 z"
       style="fill:none;stroke:#000000;stroke-width:0.75px;stroke-linecap:butt;stroke-linejoin:miter;stroke-opacity:1" /><path
       id="path883"
       d="m 177.0818,715.07018 c -4.07225,-14.47712 -9.02855,2.6622 -6.75471,2.42805 2.38003,-0.24507 4.50314,-1.6187 6.75471,-2.42805 z"
       style="fill:none;stroke:#000000;stroke-width:0.75px;stroke-linecap:butt;stroke-linejoin:miter;stroke-opacity:1" /><path
       id="path885"
       d="m 189.90328,721.79409 c 0.85476,3.23743 1.75745,6.46259 2.56428,9.7123 4.40397,17.73783 -8.21869,4.39724 -8.25575,3.54874 -0.14204,-3.2519 13.86977,4.34918 11.50802,2.17902"
       style="fill:none;stroke:#000000;stroke-width:0.75px;stroke-linecap:butt;stroke-linejoin:miter;stroke-opacity:1" /><path
       id="path887"
       d="m 173.39172,666.63311 c -3.85686,-3.32046 -9.62375,-5.25916 -11.5706,-9.96135 -5.94877,-14.36795 10.98775,-8.91757 14.5727,-5.66553 7.55436,6.85284 4.79826,25.11882 -3.81516,20.73207 -1.53551,-0.78203 0.54204,-3.40347 0.81306,-5.10519 z"
       style="fill:none;stroke:#000000;stroke-width:0.75px;stroke-linecap:butt;stroke-linejoin:miter;stroke-opacity:1" /><path
       id="path889"
       d="m 190.09091,645.52751 c 0.62874,-7.71466 -5.72524,-11.28653 0,0 z"
       style="fill:none;stroke:#000000;stroke-width:0.75px;stroke-linecap:butt;stroke-linejoin:miter;stroke-opacity:1" /><path
       id="path891"
       d="m 203.788,669.1857 c 7.45473,2.23851 -8.83557,-27.54669 2.50174,-23.47143"
       style="fill:none;stroke:#000000;stroke-width:0.75px;stroke-linecap:butt;stroke-linejoin:miter;stroke-opacity:1" /><path
       id="path893"
       d="m 254.82373,691.97228 c -1.04241,-10.60468 -0.60878,-21.46014 -3.12722,-31.81405 -0.35999,-1.48001 -4.21242,-1.29486 -4.56568,0.18677 -1.50655,6.31864 -0.61848,13.00988 -0.12509,19.48688 0.65757,8.63217 8.07084,14.75847 16.82426,13.32332 1.10118,-0.18054 1.43259,-1.82717 1.62614,-2.92613 1.19029,-6.75813 -1.04962,-11.43714 -5.06603,-16.87206 -1.62195,-2.19478 -8.2576,-5.47163 -7.6929,-2.80163 4.0502,19.15003 21.17409,-17.00359 24.32953,-10.02361"
       style="fill:none;stroke:#000000;stroke-width:0.75px;stroke-linecap:butt;stroke-linejoin:miter;stroke-opacity:1" /><path
       id="path895"
       d="m 238.74994,698.26039 c 42.38404,0.77868 24.85121,0.43242 52.59933,0.99614"
       style="fill:none;stroke:#000000;stroke-width:0.75px;stroke-linecap:butt;stroke-linejoin:miter;stroke-opacity:1" /><path
       id="path897"
       d="m 252.82229,750.99327 c -0.4795,-7.94832 0.47549,-16.11564 -1.4385,-23.84496 -0.35059,-1.41582 -3.79834,0.18478 -4.06534,1.61872 -0.89736,4.81952 1.74752,17.96958 5.50384,22.22624 15.61363,17.69337 16.12339,-6.90929 4.50318,-14.81749 -6.29128,-4.28157 -2.86559,9.70556 -2.87701,10.02361 -0.0605,1.68631 -3.1565,5.50479 -1.62617,4.79388 14.97158,-6.95492 12.25287,-19.06151 16.57414,-32.12535 0.61007,-1.84435 3.43309,2.2234 4.25296,3.98454"
       style="fill:none;stroke:#000000;stroke-width:0.75px;stroke-linecap:butt;stroke-linejoin:miter;stroke-opacity:1" /><path
       id="path899"
       d="m 260.89045,777.14182 c -15.50673,-6.92738 -14.31252,-4.27547 -25.83057,-20.42078 -7.38174,-10.34728 -15.47912,-38.95787 1.25086,-45.57317 19.79959,-7.82909 46.008,1.87066 52.53678,22.53754 4.50635,14.26484 -4.60075,36.98233 -18.8882,41.02833 -3.01103,0.85268 -6.19939,3.67685 -9.06887,2.42808 -2.61042,-1.13604 -2.25156,-5.22972 -3.37734,-7.84458"
       style="fill:none;stroke:#000000;stroke-width:0.75px;stroke-linecap:butt;stroke-linejoin:miter;stroke-opacity:1" /></g></svg>
